PathFileType	4	(X/Y/Z)	/Users/itak/Documents/Research/Walk-IL/dataset/trc/00497_00183.trc
DataRate	CameraRate	NumFrames	NumMarkers	Units	OrigDataRate	OrigDataStartFrame	OrigNumFrames
100.000000	100.000000	4	53	mm	100.000000	180	723
Frame#	Time	RPSI			LPSI			L3			STRN			T10			C7			CLAV			RBAK			LBAK			LSHO			LUPA			LAEL			LAOL			LWTS			LWPS			LFRA			LIFD			LHPS			LHTS			RSHO			RUPA			RAEL			RAOL			RWTS			RWPS			RFRA			RIFD			RHTS			RHPS			RBHD			LFHD			RFHD			LBHD			LHIP			RHIP			RASI			LASI			LKNE			LTHI			LANK			LTIP			LTOE			LMT1			LMT5			LHEE			RKNE			RTHI			RANK			RTIP			RTOE			RMT1			RMT5			RHEE			
		X1	Y1	Z1	X2	Y2	Z2	X3	Y3	Z3	X4	Y4	Z4	X5	Y5	Z5	X6	Y6	Z6	X7	Y7	Z7	X8	Y8	Z8	X9	Y9	Z9	X10	Y10	Z10	X11	Y11	Z11	X12	Y12	Z12	X13	Y13	Z13	X14	Y14	Z14	X15	Y15	Z15	X16	Y16	Z16	X17	Y17	Z17	X18	Y18	Z18	X19	Y19	Z19	X20	Y20	Z20	X21	Y21	Z21	X22	Y22	Z22	X23	Y23	Z23	X24	Y24	Z24	X25	Y25	Z25	X26	Y26	Z26	X27	Y27	Z27	X28	Y28	Z28	X29	Y29	Z29	X30	Y30	Z30	X31	Y31	Z31	X32	Y32	Z32	X33	Y33	Z33	X34	Y34	Z34	X35	Y35	Z35	X36	Y36	Z36	X37	Y37	Z37	X38	Y38	Z38	X39	Y39	Z39	X40	Y40	Z40	X41	Y41	Z41	X42	Y42	Z42	X43	Y43	Z43	X44	Y44	Z44	X45	Y45	Z45	X46	Y46	Z46	X47	Y47	Z47	X48	Y48	Z48	X49	Y49	Z49	X50	Y50	Z50	X51	Y51	Z51	X52	Y52	Z52	X53	Y53	Z53	

181	1.8	-1079.415893554688	976.0541381835938	-410.735107421875	-1015.976440429688	973.2408447265625	-517.318603515625	-1052.209106445312	1040.084838867188	-473.3837890625	-852.8002319335938	1197.609497070312	-373.95947265625	-1065.195922851562	1145.08203125	-477.3777465820312	-1020.781188964844	1374.372680664062	-456.2374267578125	-883.46728515625	1293.058959960938	-390.7006225585938	-1105.047485351562	1255.725219726562	-400.2767028808594	-1007.497680664062	1320.437133789062	-545.7188720703125	-888.4531860351562	1361.880004882812	-571.7142944335938	-878.3486328125	1233.901123046875	-629.5189208984375	-867.6243896484375	1022.752746582031	-644.6883544921875	-964.1292724609375	1019.383056640625	-620.335205078125	-800.7474365234375	839.3592529296875	-568.68408203125	-854.8687133789062	802.28271484375	-636.4518432617188	-848.8013305664062	950.9640502929688	-638.1277465820312	-811.4212036132812	681.826171875	-548.4828491210938	-837.9757690429688	747.7077026367188	-618.228271484375	-788.1689453125	758.45166015625	-576.274658203125	-1035.4306640625	1369.746215820312	-299.1580505371094	-1076.505615234375	1303.421752929688	-253.7151031494141	-1081.4912109375	1037.131225585938	-200.6910095214844	-1123.677001953125	1018.807006835938	-248.9858703613281	-970.0665893554688	838.8759765625	-215.2449493408203	-1048.046508789062	813.0810546875	-173.69921875	-1076.672607421875	982.5236206054688	-191.3418121337891	-964.81689453125	678.238037109375	-225.4792938232422	-955.5677490234375	742.6287841796875	-197.9370727539062	-1024.412109375	738.371826171875	-177.0533599853516	-1030.047607421875	1515.533203125	-369.3301391601562	-856.9653930664062	1599.09423828125	-426.8967590332031	-925.0210571289062	1589.642456054688	-319.3525695800781	-957.2222290039062	1520.9013671875	-510.5404357910156	-855.3225708007812	891.6276245117188	-571.7073974609375	-1056.148559570312	876.5785522460938	-250.6610565185547	-934.0939331054688	914.9122314453125	-255.4575347900391	-813.480224609375	921.2504272460938	-465.4182739257812	-901.9112548828125	467.4259033203125	-531.1286010742188	-864.2249145507812	623.2976684570312	-544.63623046875	-1012.709167480469	47.6097297668457	-542.6216430664062	-938.7012939453125	319.5898742675781	-543.2619018554688	-873.5569458007812	39.56280899047852	-391.1104431152344	-954.6985473632812	44.14279556274414	-403.1443786621094	-912.3018188476562	44.27695846557617	-496.4336853027344	-1084.457397460938	47.18611526489258	-511.6713562011719	-1061.060424804688	488.4035034179688	-268.9132995605469	-1042.312622070312	747.6115112304688	-231.6717071533203	-1119.402221679688	49.56265640258789	-315.5424499511719	-1062.7275390625	343.6803894042969	-282.5623168945312	-915.6082763671875	45.60634613037109	-300.9656066894531	-968.4434204101562	52.87773513793945	-353.8786010742188	-1014.948303222656	44.83334732055664	-268.9335021972656	-1155.126220703125	43.82387161254883	-376.7622680664062	
182	1.81	-1079.217529296875	976.0154418945312	-412.0462951660156	-1015.839477539062	973.1680297851562	-518.6109008789062	-1051.44970703125	1040.593383789062	-474.5340576171875	-852.1226196289062	1197.684204101562	-374.9093933105469	-1064.346069335938	1145.492309570312	-478.3784790039062	-1019.899169921875	1374.724487304688	-457.0027770996094	-882.7684936523438	1293.157348632812	-391.5247497558594	-1104.3818359375	1256.089477539062	-401.2505798339844	-1006.69873046875	1320.911987304688	-546.5470581054688	-887.581298828125	1362.23388671875	-572.4317626953125	-877.5021362304688	1234.291381835938	-630.3095703125	-866.7833251953125	1023.171020507812	-645.6659545898438	-963.3446655273438	1019.786560058594	-621.5416259765625	-800.1871337890625	839.7271728515625	-569.6090087890625	-854.152587890625	802.656494140625	-637.4864501953125	-847.974365234375	951.35791015625	-639.1117553710938	-810.8908081054688	682.2276000976562	-549.35400390625	-837.21875	748.0938110351562	-619.1735229492188	-787.3541870117188	758.8767700195312	-577.0729370117188	-1034.650024414062	1369.862915039062	-299.9346923828125	-1075.81787109375	1303.543701171875	-254.5857238769531	-1081.142944335938	1037.318359375	-201.4417572021484	-1123.259887695312	1018.9619140625	-249.8257598876953	-969.490478515625	839.22412109375	-215.7661895751953	-1047.475463867188	813.3017578125	-174.2528533935547	-1076.301635742188	982.7158203125	-192.054443359375	-963.9669799804688	678.5875854492188	-225.9607696533203	-954.8699340820312	743.0131225585938	-198.4922943115234	-1023.69921875	738.6004638671875	-177.6616973876953	-1028.630737304688	1516.279541015625	-369.5906982421875	-854.875	1598.624389648438	-427.015380859375	-922.9163818359375	1589.281982421875	-319.4255676269531	-955.8604736328125	1521.667114257812	-510.922119140625	-854.9205322265625	891.587646484375	-572.7073974609375	-1056.179931640625	877.1531982421875	-251.7883453369141	-933.9586181640625	915.5690307617188	-256.5360717773438	-813.236328125	921.45166015625	-466.4341430664062	-900.3667602539062	467.3092651367188	-530.406494140625	-863.06591796875	623.205810546875	-544.5591430664062	-1012.661926269531	47.62144470214844	-542.6414184570312	-937.2665405273438	319.2512512207031	-542.2508544921875	-873.6130981445312	39.49913024902344	-390.9024047851562	-954.6179809570312	44.06962966918945	-403.0153198242188	-912.32958984375	44.35488891601562	-496.3440246582031	-1084.461669921875	47.14609909057617	-511.6894226074219	-1059.109130859375	488.7093811035156	-269.0552368164062	-1041.668334960938	748.0823974609375	-232.4380340576172	-1119.307983398438	49.8285026550293	-315.4613647460938	-1060.80322265625	343.7173156738281	-282.5184020996094	-915.6100463867188	45.65432739257812	-300.8687133789062	-968.37158203125	52.89984512329102	-353.8491516113281	-1014.906677246094	44.86307144165039	-268.8853149414062	-1155.10302734375	44.32859039306641	-376.7111511230469	
183	1.82	-1079.002807617188	976.005126953125	-413.39892578125	-1015.688049316406	973.1171264648438	-519.9447021484375	-1050.656494140625	1041.090209960938	-475.70703125	-851.4328002929688	1197.75439453125	-375.8995666503906	-1063.485961914062	1145.906494140625	-479.4069519042969	-1018.976257324219	1375.093017578125	-457.8008117675781	-882.0473022460938	1293.253295898438	-392.3786926269531	-1103.687866210938	1256.445434570312	-402.2593688964844	-1005.872253417969	1321.389770507812	-547.4052734375	-886.69970703125	1362.610107421875	-573.1796264648438	-876.6567993164062	1234.70703125	-631.1561889648438	-865.936279296875	1023.624084472656	-646.7160034179688	-962.542724609375	1020.212097167969	-622.7930908203125	-799.615234375	840.12451171875	-570.5804443359375	-853.4110717773438	803.051513671875	-638.5806884765625	-847.1411743164062	951.7637329101562	-640.1676635742188	-810.4066772460938	682.6246337890625	-550.3016357421875	-836.4591674804688	748.5098876953125	-620.169921875	-786.5841064453125	759.3274536132812	-577.9213256835938	-1033.851928710938	1369.970092773438	-300.7384033203125	-1075.114624023438	1303.66064453125	-255.4892272949219	-1080.804565429688	1037.504028320312	-202.2093353271484	-1122.828002929688	1019.114196777344	-250.7042083740234	-968.9144897460938	839.5611572265625	-216.2676544189453	-1046.913818359375	813.4984741210938	-174.841552734375	-1075.936279296875	982.89404296875	-192.7834014892578	-963.10205078125	678.9295654296875	-226.4611358642578	-954.1771240234375	743.3887329101562	-199.0217895507812	-1023.003540039062	738.8126220703125	-178.2933349609375	-1027.185668945312	1516.984497070312	-369.8543090820312	-852.8007202148438	1598.194580078125	-427.1490478515625	-920.8236694335938	1588.925659179688	-319.5237121582031	-954.4703369140625	1522.416625976562	-511.3196411132812	-854.5316772460938	891.48974609375	-573.748046875	-1056.271240234375	877.7796630859375	-252.9754791259766	-933.8289184570312	916.2568969726562	-257.6404418945312	-812.9824829101562	921.63623046875	-467.4708557128906	-898.8096923828125	467.1794128417969	-529.6603393554688	-861.8687133789062	623.0831298828125	-544.476318359375	-1012.599426269531	47.60626983642578	-542.676025390625	-935.8490600585938	318.8829650878906	-541.2647094726562	-873.6620483398438	39.43959426879883	-390.7176208496094	-954.531494140625	44.02019500732422	-402.9002990722656	-912.3472900390625	44.40951156616211	-496.2739562988281	-1084.456420898438	47.10974884033203	-511.7235107421875	-1056.963989257812	489.0230407714844	-269.1721496582031	-1041.008666992188	748.5891723632812	-233.2206115722656	-1119.177734375	50.16638565063477	-315.3738708496094	-1058.678100585938	343.7577819824219	-282.44970703125	-915.6111450195312	45.7192268371582	-300.7422180175781	-968.31103515625	52.91294479370117	-353.8289489746094	-1014.8544921875	44.9071044921875	-268.8267822265625	-1155.067016601562	44.93171691894531	-376.644287109375	
184	1.83	-1078.772094726562	976.0266723632812	-414.7905883789062	-1015.521667480469	973.0850219726562	-521.3190307617188	-1049.8310546875	1041.575073242188	-476.8997802734375	-850.7310180664062	1197.82080078125	-376.9316711425781	-1062.62109375	1146.32470703125	-480.4664916992188	-1018.015380859375	1375.472290039062	-458.6278076171875	-881.2992553710938	1293.346069335938	-393.2621459960938	-1102.961547851562	1256.795043945312	-403.3022766113281	-1005.013366699219	1321.871337890625	-548.2962646484375	-885.8073120117188	1363.004272460938	-573.9591674804688	-875.8090209960938	1235.144897460938	-632.0586547851562	-865.0861206054688	1024.102905273438	-647.8304443359375	-961.7239990234375	1020.657897949219	-624.0848388671875	-799.0401611328125	840.5482177734375	-571.58935546875	-852.6468505859375	803.4601440429688	-639.7288818359375	-846.3070068359375	952.1743774414062	-641.2852172851562	-809.9619750976562	683.0287475585938	-551.312744140625	-835.7122802734375	748.9454345703125	-621.2144775390625	-785.8684692382812	759.7938232421875	-578.8101806640625	-1033.030883789062	1370.070190429688	-301.5702209472656	-1074.389282226562	1303.77587890625	-256.4230041503906	-1080.465209960938	1037.692016601562	-202.9991455078125	-1122.381469726562	1019.269165039062	-251.6182556152344	-968.3441772460938	839.8865966796875	-216.7488098144531	-1046.369995117188	813.6797485351562	-175.4641265869141	-1075.573608398438	983.062255859375	-193.5337829589844	-962.2281494140625	679.2633056640625	-226.9568328857422	-953.4940795898438	743.7567138671875	-199.5161437988281	-1022.331787109375	739.0170288085938	-178.9369049072266	-1025.717407226562	1517.641967773438	-370.1248168945312	-850.7514038085938	1597.80908203125	-427.2913513183594	-918.753662109375	1588.575561523438	-319.6425170898438	-953.0521850585938	1523.14794921875	-511.7266540527344	-854.1527709960938	891.3213500976562	-574.8157348632812	-1056.423217773438	878.4468383789062	-254.2144012451172	-933.7093505859375	916.9789428710938	-258.7642211914062	-812.7145385742188	921.8014526367188	-468.5176086425781	-897.2666015625	467.0381164550781	-528.9108276367188	-860.6484375	622.9380493164062	-544.3905029296875	-1012.524658203125	47.56852340698242	-542.7196044921875	-934.48681640625	318.4884033203125	-540.3272094726562	-873.70361328125	39.38453674316406	-390.5568542480469	-954.4554443359375	43.99839782714844	-402.8119201660156	-912.3558349609375	44.44478225708008	-496.2244873046875	-1084.44140625	47.07657623291016	-511.7709045410156	-1054.597900390625	489.3444519042969	-269.2695617675781	-1040.334594726562	749.1279296875	-234.0198059082031	-1119.005859375	50.59243774414062	-315.2812194824219	-1056.330932617188	343.8125915527344	-282.3427734375	-915.6099243164062	45.80450820922852	-300.5782775878906	-968.2591552734375	52.91835403442383	-353.8120727539062	-1014.788879394531	44.96970748901367	-268.7543334960938	-1155.011108398438	45.65092849731445	-376.5588989257812	
